<svg width="420" height="320" viewBox="0 0 420 320" fill="none" xmlns="http://www.w3.org/2000/svg">
  <defs>
    <linearGradient id="chat-bg" x1="62" y1="-30" x2="348" y2="338" gradientUnits="userSpaceOnUse">
      <stop offset="0" stop-color="#402074" />
      <stop offset="1" stop-color="#14121c" />
    </linearGradient>
    <linearGradient id="chat-bubble" x1="0" y1="0" x2="1" y2="1">
      <stop offset="0" stop-color="#6d5cff" />
      <stop offset="1" stop-color="#4531a6" />
    </linearGradient>
    <linearGradient id="chat-reply" x1="0" y1="0" x2="1" y2="1">
      <stop offset="0" stop-color="#1d2c48" />
      <stop offset="1" stop-color="#0f1624" />
    </linearGradient>
    <linearGradient id="chat-input" x1="0" y1="0" x2="1" y2="1">
      <stop offset="0" stop-color="#252533" />
      <stop offset="1" stop-color="#1a1a25" />
    </linearGradient>
  </defs>
  <rect x="12" y="20" width="396" height="280" rx="26" fill="url(#chat-bg)" />
  <rect x="40" y="54" width="340" height="36" rx="18" fill="rgba(255,255,255,0.08)" />
  <circle cx="72" cy="72" r="10" fill="#6d5cff" />
  <circle cx="100" cy="72" r="10" fill="#e5e7ff" />
  <rect x="40" y="112" width="244" height="76" rx="18" fill="url(#chat-bubble)" />
  <rect x="56" y="130" width="212" height="12" rx="6" fill="rgba(255,255,255,0.86)" />
  <rect x="56" y="152" width="148" height="12" rx="6" fill="rgba(255,255,255,0.68)" />
  <rect x="140" y="210" width="240" height="76" rx="18" fill="url(#chat-reply)" />
  <rect x="158" y="228" width="204" height="12" rx="6" fill="rgba(203,212,255,0.85)" />
  <rect x="158" y="250" width="172" height="12" rx="6" fill="rgba(203,212,255,0.55)" />
  <rect x="40" y="210" width="80" height="76" rx="20" fill="rgba(0,0,0,0.25)" />
  <path d="M64 252h32" stroke="rgba(255,255,255,0.45)" stroke-width="4" stroke-linecap="round" />
  <rect x="40" y="282" width="340" height="34" rx="17" fill="url(#chat-input)" />
  <rect x="56" y="292" width="220" height="12" rx="6" fill="rgba(255,255,255,0.38)" />
  <rect x="308" y="292" width="60" height="12" rx="6" fill="#6d5cff" />
</svg>
