<svg width="420" height="320" viewBox="0 0 420 320" fill="none" xmlns="http://www.w3.org/2000/svg">
  <defs>
    <linearGradient id="suite-bg" x1="40" y1="12" x2="360" y2="304" gradientUnits="userSpaceOnUse">
      <stop offset="0" stop-color="#11305a" />
      <stop offset="1" stop-color="#09101d" />
    </linearGradient>
    <linearGradient id="suite-card" x1="0" y1="0" x2="1" y2="1">
      <stop offset="0" stop-color="#1a2435" />
      <stop offset="1" stop-color="#101828" />
    </linearGradient>
    <linearGradient id="suite-pill" x1="0" y1="0" x2="1" y2="1">
      <stop offset="0" stop-color="#e4f0ff" />
      <stop offset="1" stop-color="#c2d7ff" />
    </linearGradient>
  </defs>
  <rect x="10" y="18" width="400" height="284" rx="28" fill="url(#suite-bg)" />
  <rect x="40" y="52" width="340" height="44" rx="12" fill="rgba(255,255,255,0.08)" />
  <rect x="56" y="66" width="90" height="16" rx="8" fill="rgba(255,255,255,0.65)" />
  <circle cx="340" cy="74" r="8" fill="#5e8cff" />
  <circle cx="360" cy="74" r="8" fill="#4ad8b1" />
  <rect x="48" y="116" width="140" height="160" rx="18" fill="url(#suite-card)" stroke="rgba(255,255,255,0.12)" stroke-width="2" />
  <rect x="70" y="140" width="96" height="14" rx="7" fill="rgba(255,255,255,0.68)" />
  <rect x="70" y="164" width="64" height="10" rx="5" fill="rgba(255,255,255,0.38)" />
  <rect x="70" y="190" width="88" height="54" rx="10" fill="rgba(94,140,255,0.16)" />
  <rect x="70" y="256" width="72" height="12" rx="6" fill="rgba(255,255,255,0.28)" />
  <rect x="208" y="116" width="172" height="60" rx="16" fill="url(#suite-card)" stroke="rgba(255,255,255,0.12)" stroke-width="2" />
  <rect x="228" y="136" width="132" height="12" rx="6" fill="rgba(255,255,255,0.75)" />
  <rect x="228" y="156" width="92" height="10" rx="5" fill="#5e8cff" opacity="0.5" />
  <rect x="208" y="190" width="172" height="86" rx="18" fill="url(#suite-card)" stroke="rgba(255,255,255,0.12)" stroke-width="2" />
  <rect x="228" y="210" width="132" height="12" rx="6" fill="rgba(255,255,255,0.62)" />
  <rect x="228" y="232" width="100" height="10" rx="5" fill="rgba(255,255,255,0.36)" />
  <rect x="228" y="256" width="84" height="24" rx="12" fill="url(#suite-pill)" />
  <rect x="48" y="90" width="66" height="12" rx="6" fill="rgba(74,216,177,0.6)" />
  <rect x="120" y="90" width="28" height="12" rx="6" fill="rgba(255,255,255,0.3)" />
</svg>
