<svg width="120" height="120" viewBox="0 0 120 120" fill="none" xmlns="http://www.w3.org/2000/svg">
  <!-- Background with subtle border -->
  <rect width="120" height="120" rx="24" fill="#0a0a0a"/>
  <rect x="1" y="1" width="118" height="118" rx="23" stroke="url(#borderGradient)" stroke-width="2"/>
  
  <!-- Main 'r' shape -->
  <path d="M30 30h25v25h-10v-15h-15v-10z M30 55h15v35h-15v-35z" fill="white"/>
  
  <!-- Dot -->
  <circle cx="82" cy="82" r="12" fill="white"/>
  
  <!-- Top right curve -->
  <path d="M55 30h25c8.284 0 15 6.716 15 15v10c0 8.284-6.716 15-15 15h-25v-10h25c2.761 0 5-2.239 5-5v-10c0-2.761-2.239-5-5-5h-25v-10z" fill="white"/>
  
  <!-- Gradient definition -->
  <defs>
    <linearGradient id="borderGradient" x1="0" y1="0" x2="120" y2="120" gradientUnits="userSpaceOnUse">
      <stop offset="0%" stop-color="#5e8cff" stop-opacity="0.4"/>
      <stop offset="50%" stop-color="#5e8cff" stop-opacity="0.6"/>
      <stop offset="100%" stop-color="#5e8cff" stop-opacity="0.4"/>
    </linearGradient>
  </defs>
</svg>
